<svg width="252" height="252" viewBox="0 0 252 252" fill="none" xmlns="http://www.w3.org/2000/svg">
<g clip-path="url(#clip0_13_154)">
<circle cx="126" cy="126" r="124.5" fill="#693CC5" stroke="white" stroke-width="3"/>
<path d="M103.001 174C101.754 174 100.632 173.564 99.635 172.691C98.7623 171.694 98.326 170.572 98.326 169.325V78.63C98.326 77.3833 98.7 76.3237 99.448 75.451C100.321 74.4537 101.318 73.955 102.44 73.955H154.8C156.171 73.955 157.293 74.3913 158.166 75.264C159.039 76.1367 159.475 77.2587 159.475 78.63C159.475 79.8767 159.039 80.9987 158.166 81.996C157.293 82.8687 156.171 83.305 154.8 83.305H107.676V115.843H146.759C148.13 115.843 149.252 116.279 150.125 117.152C150.998 118.025 151.434 119.147 151.434 120.518C151.434 121.765 150.998 122.887 150.125 123.884C149.252 124.757 148.13 125.193 146.759 125.193H107.676V164.65H155.174C156.545 164.65 157.667 165.086 158.54 165.959C159.413 166.832 159.849 167.954 159.849 169.325C159.849 170.572 159.413 171.694 158.54 172.691C157.667 173.564 156.545 174 155.174 174H103.001Z" fill="white"/>
</g>
<defs>
<clipPath id="clip0_13_154">
<rect width="252" height="252" fill="white"/>
</clipPath>
</defs>
</svg>
